<svg xmlns="http://www.w3.org/2000/svg" xmlns:xlink="http://www.w3.org/1999/xlink" width="310" height="155.8" viewBox="0 0 310 155.8">
  <defs>
    <linearGradient id="linear-gradient" y1="0.121" x2="1" y2="1" gradientUnits="objectBoundingBox">
      <stop offset="0" stop-color="#c70074" stop-opacity="0.769"/>
      <stop offset="0.262" stop-color="#a62b8c"/>
      <stop offset="1" stop-color="#361575"/>
    </linearGradient>
    <radialGradient id="radial-gradient" cx="0.734" cy="0.099" r="0.883" gradientTransform="matrix(-0.09, 0.996, -4.105, -0.37, 1.357, -0.453)" gradientUnits="objectBoundingBox">
      <stop offset="0" stop-color="#be3194"/>
      <stop offset="0.322" stop-color="#8f2789"/>
      <stop offset="1" stop-color="#361575"/>
    </radialGradient>
    <linearGradient id="linear-gradient-2" x1="0.322" y1="0.223" x2="0.626" y2="1.54" gradientUnits="objectBoundingBox">
      <stop offset="0" stop-color="#fff" stop-opacity="0.102"/>
      <stop offset="1" stop-color="#fff"/>
    </linearGradient>
    <linearGradient id="linear-gradient-3" x1="0.322" y1="0.223" x2="0.626" y2="1.54" xlink:href="#linear-gradient-2"/>
    <linearGradient id="linear-gradient-5" y1="0.5" x2="1" y2="0.5" gradientUnits="objectBoundingBox">
      <stop offset="0" stop-color="#ffac00"/>
      <stop offset="1" stop-color="#ffe330"/>
    </linearGradient>
    <linearGradient id="linear-gradient-6" y1="0.5" x2="1" y2="0.5" gradientUnits="objectBoundingBox">
      <stop offset="0" stop-color="#2ebdff"/>
      <stop offset="1" stop-color="#b8e9ff"/>
    </linearGradient>
    <radialGradient id="radial-gradient-2" cx="0.5" cy="0.5" r="0.5" gradientUnits="objectBoundingBox">
      <stop offset="0" stop-color="#461878"/>
      <stop offset="1" stop-color="#230c3c"/>
    </radialGradient>
  </defs>
  <g id="Grupo_43" data-name="Grupo 43" transform="translate(-32.873 -19)">
    <g id="Grupo_3" data-name="Grupo 3" transform="translate(0.346 -21.469)">
      <g id="Grupo_1" data-name="Grupo 1">
        <rect id="Rectángulo_5" data-name="Rectángulo 5" width="134.434" height="93.436" rx="8.446" transform="translate(119.937 72.786)" fill="#8a80a8"/>
        <rect id="Rectángulo_6" data-name="Rectángulo 6" width="80.222" height="121.22" transform="translate(247.763 79.393) rotate(90)" fill="#8a80a8"/>
        <path id="Trazado_2" data-name="Trazado 2" d="M119.937,148.663v12.416a5.143,5.143,0,0,0,5.143,5.143H249.227a5.143,5.143,0,0,0,5.143-5.143V148.663Z" fill="#8a80a8"/>
      </g>
      <g id="Grupo_2" data-name="Grupo 2">
        <path id="Trazado_3" data-name="Trazado 3" d="M204.843,184.878l-1.869-18.656h-33.23l-1.869,18.656Z" fill="#8a80a8"/>
      </g>
      <path id="Trazado_4" data-name="Trazado 4" d="M338.448,194.076a150.934,150.934,0,0,0-301.794,0Z" fill="#8a80a8"/>
    </g>
    <g id="Grupo_5" data-name="Grupo 5" transform="translate(0.346 -21.469)">
      <g id="Grupo_4" data-name="Grupo 4" transform="translate(126.54 78.832)">
        <path id="Rectángulo_7" data-name="Rectángulo 7" d="M8.72,0H85.637a0,0,0,0,1,0,0V121.188a0,0,0,0,1,0,0H8.72A8.72,8.72,0,0,1,0,112.467V8.72A8.72,8.72,0,0,1,8.72,0Z" transform="translate(121.188) rotate(90)" fill="#d3d4d2" stroke="#e8eeee" stroke-width="1"/>
      </g>
    </g>
    <g id="Grupo_7" data-name="Grupo 7" transform="translate(0.346 -25.24)">
      <g id="Grupo_6" data-name="Grupo 6" transform="translate(132.933 98.24)">
        <rect id="Rectángulo_8" data-name="Rectángulo 8" width="107.182" height="65" rx="2.68" fill="#fff"/>
      </g>
    </g>
    <path id="Trazado_5" data-name="Trazado 5" d="M44.862,184.269s-27.754-41.854,0-91.931c0,0,44.864,33.228,28.728,91.931Z" transform="translate(0.346 -12.469)" fill="url(#linear-gradient)"/>
    <path id="Trazado_6" data-name="Trazado 6" d="M76.59,150.065c-.032-.3-.064-.6-.1-.893a123.178,123.178,0,0,1-15.435,18.371c-1.3-10.276-3.031-20.936-4.965-31.082l.023.015a191.144,191.144,0,0,0,10.67-17.517c-.114-.209-.229-.416-.343-.623a190.593,190.593,0,0,1-10.5,17.33C52.567,118.115,48.6,102.193,45.2,92.6c-.216-.168-.336-.258-.336-.258-.078.142-.15.282-.227.423,3.376,9.491,7.32,25.293,10.679,42.749-7.921-6.029-14.749-11.531-20.634-16.634-.049.221-.1.443-.148.663,5.972,5.166,12.9,10.738,20.95,16.851,1.959,10.271,3.709,21.078,5.018,31.485a151.786,151.786,0,0,1-26.282-11.981c.051.261.1.519.155.777a152.12,152.12,0,0,0,26.21,11.867c.672,5.4,1.223,10.691,1.62,15.731h.6c-.4-5.119-.967-10.494-1.653-15.986A121.176,121.176,0,0,0,76.59,150.065Z" transform="translate(0.346 -12.469)" fill="#fff"/>
    <path id="Trazado_7" data-name="Trazado 7" d="M90.08,184.269s19.93-30.053,0-66.01c0,0-32.214,23.858-20.627,66.01Z" transform="translate(0.346 -12.469)" fill="#f3cc2f"/>
    <path id="Trazado_8" data-name="Trazado 8" d="M67.3,159.709c.024-.214.047-.428.072-.641a88.479,88.479,0,0,0,11.084,13.191c.935-7.379,2.176-15.033,3.564-22.319l-.016.012a137.136,137.136,0,0,1-7.661-12.579c.081-.15.164-.3.246-.447a137.1,137.1,0,0,0,7.54,12.444c2.421-12.6,5.27-24.035,7.713-30.926.154-.121.24-.185.24-.185.057.1.108.2.164.3-2.425,6.815-5.256,18.162-7.669,30.7,5.688-4.329,10.591-8.28,14.817-11.944.035.158.073.318.106.476-4.288,3.71-9.263,7.711-15.043,12.1-1.407,7.376-2.663,15.136-3.6,22.608a109.035,109.035,0,0,0,18.871-8.6c-.036.187-.073.372-.111.557a109.15,109.15,0,0,1-18.82,8.521c-.482,3.88-.878,7.677-1.163,11.3H77.2c.29-3.676.694-7.535,1.186-11.478A87.107,87.107,0,0,1,67.3,159.709Z" transform="translate(0.346 -12.469)" fill="#fff"/>
    <path id="Trazado_9" data-name="Trazado 9" d="M330.192,184.269s27.754-41.854,0-91.931c0,0-44.864,33.228-28.728,91.931Z" transform="translate(0.346 -9.469)" fill="url(#radial-gradient)"/>
    <g id="Grupo_25" data-name="Grupo 25" transform="translate(0 5)">
      <path id="Trazado_10" data-name="Trazado 10" d="M298.464,150.065c.032-.3.064-.6.1-.893A123.178,123.178,0,0,0,314,167.543c1.3-10.276,3.031-20.936,4.964-31.082l-.022.015a191.145,191.145,0,0,1-10.67-17.517c.114-.209.229-.416.343-.623a190.805,190.805,0,0,0,10.5,17.33c3.372-17.551,7.339-33.473,10.741-43.07.216-.168.336-.258.336-.258.078.142.15.282.227.423-3.376,9.491-7.32,25.293-10.679,42.749,7.921-6.029,14.749-11.531,20.634-16.634.049.221.1.443.148.663-5.972,5.166-12.9,10.738-20.95,16.851-1.959,10.271-3.709,21.078-5.019,31.485a151.718,151.718,0,0,0,26.282-11.981c-.05.261-.1.519-.154.777a152.156,152.156,0,0,1-26.21,11.867c-.672,5.4-1.223,10.691-1.62,15.731h-.6c.4-5.119.967-10.494,1.653-15.986A121.176,121.176,0,0,1,298.464,150.065Z" transform="translate(0.346 -14.469)" fill="#fff"/>
      <path id="Trazado_11" data-name="Trazado 11" d="M287.412,184.269s-17.828-26.886,0-59.053c0,0,28.82,21.344,18.454,59.053Z" transform="translate(0.346 -14.469)" fill="#f3cc2f"/>
      <path id="Trazado_12" data-name="Trazado 12" d="M307.794,162.3c-.021-.192-.042-.384-.065-.574a79.032,79.032,0,0,1-9.915,11.8c-.836-6.6-1.947-13.449-3.189-19.967l.015.011a122.852,122.852,0,0,0,6.853-11.253c-.073-.135-.146-.268-.22-.4a121.975,121.975,0,0,1-6.746,11.133c-2.165-11.275-4.714-21.5-6.9-27.667-.138-.108-.216-.165-.216-.165-.05.09-.1.18-.146.271,2.169,6.1,4.7,16.248,6.86,27.461-5.088-3.873-9.474-7.408-13.255-10.685-.031.141-.065.284-.1.425,3.837,3.319,8.287,6.9,13.458,10.825,1.259,6.6,2.383,13.54,3.224,20.225a97.5,97.5,0,0,1-16.883-7.7c.033.167.066.334.1.5a97.782,97.782,0,0,0,16.837,7.623c.431,3.471.785,6.867,1.04,10.1h.384c-.26-3.288-.621-6.741-1.062-10.269A77.86,77.86,0,0,0,307.794,162.3Z" transform="translate(0.346 -14.469)" fill="#fff"/>
    </g>
    <path id="Trazado_13" data-name="Trazado 13" d="M151.316,61.256a1.763,1.763,0,0,0-1.019-1.233,2.5,2.5,0,0,0-2.551.456A3.049,3.049,0,0,0,146,57.56a2.469,2.469,0,0,0-2.542.386c-.635-4.669-2.493-10.64-8.083-10.551-5.524.088-8.586,5.008-10.878,9.391a2.334,2.334,0,0,0-2.264-.8c-1.479.242-2.28,1.6-2.823,2.883a1.426,1.426,0,0,0-1.587.152,4.537,4.537,0,0,0-1.194,2.237Z" transform="translate(0.346 -27.469)" fill="url(#linear-gradient-2)"/>
    <path id="Trazado_14" data-name="Trazado 14" d="M280.729,70.961a3.118,3.118,0,0,0-1.8-2.18,4.414,4.414,0,0,0-4.507.807c-.066-2.138-.943-4.3-3.086-5.158a4.363,4.363,0,0,0-4.491.682c-1.122-8.248-4.4-18.8-14.281-18.641-9.759.156-15.169,8.849-19.22,16.592a4.119,4.119,0,0,0-4-1.417c-2.614.427-4.029,2.824-4.989,5.094a2.518,2.518,0,0,0-2.8.269c-1.129.9-1.652,2.5-2.109,3.952Z" transform="translate(0.346 -27.469)" fill="url(#linear-gradient-3)"/>
    <path id="Trazado_15" data-name="Trazado 15" d="M116.14,92.007a3.419,3.419,0,0,0-1.974-2.392c-1.753-.811-3.494-.154-4.947.885-.072-2.347-1.035-4.723-3.387-5.66a4.787,4.787,0,0,0-4.929.748C99.672,76.536,96.07,64.956,85.23,65.129c-10.711.171-16.648,9.712-21.094,18.21a4.522,4.522,0,0,0-4.388-1.555c-2.869.469-4.421,3.1-5.475,5.591a2.76,2.76,0,0,0-3.076.295c-1.24.988-1.813,2.745-2.315,4.337Z" transform="translate(0.346 -21.469)" fill="url(#linear-gradient-3)"/>
    <g id="Grupo_19" data-name="Grupo 19" transform="translate(4.346 -15.469)">
      <g id="Grupo_18" data-name="Grupo 18">
        <g id="Grupo_15" data-name="Grupo 15">
          <path id="Trazado_16" data-name="Trazado 16" d="M114.348,181.119a19.379,19.379,0,0,1-2.395-.193l.311-1.9a15.683,15.683,0,0,0,3.07.125c.836-.081,2.115-.138,2.655-.892.417-.581.173-2.084.167-2.745q-.021-1.95-.04-3.9a3.652,3.652,0,0,0-.564-2.34,2.234,2.234,0,0,0-1.593-.744,3.98,3.98,0,0,0-1.757.358l-.78-1.719a4.654,4.654,0,0,1,3.268-.475,4.162,4.162,0,0,1,2.849,2.122,6.059,6.059,0,0,1,.464,2.273,31.719,31.719,0,0,1-.021,6.922,3.532,3.532,0,0,1-.473,1.438,3.232,3.232,0,0,1-1.65,1.137A9.929,9.929,0,0,1,114.348,181.119Z" fill="#f5f5f5"/>
        </g>
        <g id="Grupo_17" data-name="Grupo 17">
          <path id="Trazado_17" data-name="Trazado 17" d="M113.688,160.8c2.425,1.368.389,3.028-4.547,3.706s-10.9.117-13.329-1.252-.39-3.028,4.547-3.706S111.263,159.433,113.688,160.8Z" fill="url(#linear-gradient-5)"/>
          <path id="Trazado_18" data-name="Trazado 18" d="M104.825,164.336c-3.727.01-7.176-.571-8.787-1.48-.546-.308-.831-.627-.783-.876.086-.449,1.276-1.44,5.166-1.974a31.888,31.888,0,0,1,4.254-.284c3.727-.01,7.176.57,8.787,1.48.545.307.831.627.783.876-.086.449-1.276,1.44-5.166,1.974A32.046,32.046,0,0,1,104.825,164.336Z" fill="#e15372"/>
          <g id="Grupo_16" data-name="Grupo 16">
            <path id="Trazado_19" data-name="Trazado 19" d="M104.682,162.029a23.862,23.862,0,0,1,8.077,1.147c1.038-.419,1.438-.845,1.486-1.1s-.238-.569-.783-.876c-1.611-.91-5.06-1.49-8.787-1.48a31.888,31.888,0,0,0-4.254.284c-3.89.534-5.08,1.525-5.166,1.974-.048.249.237.568.783.876a5.822,5.822,0,0,0,.709.333,15.741,15.741,0,0,1,3.68-.876A32.058,32.058,0,0,1,104.682,162.029Z" fill="#ececec"/>
            <path id="Trazado_20" data-name="Trazado 20" d="M109.079,164.052a15.727,15.727,0,0,0,3.68-.876,23.862,23.862,0,0,0-8.077-1.147,32.058,32.058,0,0,0-4.255.284,15.741,15.741,0,0,0-3.68.876,23.868,23.868,0,0,0,8.078,1.147A32.046,32.046,0,0,0,109.079,164.052Z" fill="url(#linear-gradient-6)"/>
          </g>
        </g>
      </g>
      <path id="Trazado_21" data-name="Trazado 21" d="M114.707,162.093c-.1.994-2.128,1.942-5.566,2.414-4.936.678-10.9.118-13.329-1.251-.651-.367-1.018-.754-1.019-1.14,0,.236.279,21.476.275,21.854a1.756,1.756,0,0,0,1.023,1.365c2.426,1.369,8.393,1.929,13.33,1.251,3.532-.485,5.117-1.707,5.106-2.731C114.523,183.448,114.707,162.093,114.707,162.093Z" fill="#fff"/>
    </g>
    <g id="Grupo_21" data-name="Grupo 21" transform="translate(0.346 -21.469)">
      <rect id="Rectángulo_10" data-name="Rectángulo 10" width="20.362" height="18.815" transform="translate(176.973 98.569)" fill="#ffc09c"/>
      <g id="Grupo_20" data-name="Grupo 20">
        <path id="Trazado_22" data-name="Trazado 22" d="M167.681,80.937a2.3,2.3,0,0,0-2.489-2.1h0a2.3,2.3,0,0,0-2.053,2.817,42.3,42.3,0,0,1,2.239,5.08,11.446,11.446,0,0,1,.446,4.939,1.53,1.53,0,0,0,1.641,1.736C169.881,93.269,167.681,80.937,167.681,80.937Z" fill="#ffc09c"/>
        <path id="Trazado_23" data-name="Trazado 23" d="M208.463,80.6a2.3,2.3,0,0,1,2.562-2.014h0a2.3,2.3,0,0,1,1.951,2.889,42.249,42.249,0,0,0-2.419,5,11.44,11.44,0,0,0-.623,4.919,1.53,1.53,0,0,1-1.7,1.676C205.823,92.843,208.463,80.6,208.463,80.6Z" fill="#ffc09c"/>
      </g>
    </g>
    <g id="Grupo_24" data-name="Grupo 24" transform="translate(0.346 -21.469)">
      <g id="Grupo_22" data-name="Grupo 22">
        <path id="Trazado_24" data-name="Trazado 24" d="M137.411,185.7h-6.877v-3.439a6.876,6.876,0,0,1,6.877-6.876h0Z" fill="#ffb78d"/>
        <path id="Trazado_25" data-name="Trazado 25" d="M142.483,152.689l-11.7,31.847a4.556,4.556,0,0,0,.2,3.612l.951,1.9a4.56,4.56,0,0,0,5.105,2.4h0a10.318,10.318,0,0,0,7.366-6.5L154.861,157.5Z" fill="#ffc09c"/>
      </g>
      <g id="Grupo_23" data-name="Grupo 23">
        <path id="Trazado_26" data-name="Trazado 26" d="M236.9,185.7h6.877v-3.439a6.876,6.876,0,0,0-6.877-6.876h0Z" fill="#ffb78d"/>
        <path id="Trazado_27" data-name="Trazado 27" d="M231.824,152.689l11.7,31.847a4.556,4.556,0,0,1-.2,3.612l-.951,1.9a4.56,4.56,0,0,1-5.1,2.4h0a10.318,10.318,0,0,1-7.366-6.5L219.446,157.5Z" fill="#ffc09c"/>
      </g>
    </g>
    <path id="Trazado_28" data-name="Trazado 28" d="M211.558,121.572a35.565,35.565,0,0,0-16.5-3.956H179.271A35.909,35.909,0,0,0,162,121.975c-8.238,4.516-18.5,13.591-23.718,31.655l19.844,8.084-.775,32.363H216.96l-.775-32.363,19.844-8.084C230.65,135.012,219.915,125.943,211.558,121.572Z" transform="translate(0.346 -21.469)" fill="#f3cc2f"/>
    <path id="Trazado_29" data-name="Trazado 29" d="M153.485,195.522h68.149l1.21-37.573c1.681-16.447-21.641-29.37-45.322-24.66q-.837.166-1.674.357c-15.138,3.458-24.68,13.463-23.592,24.113C152.707,162.169,153.175,192.483,153.485,195.522Z" transform="translate(0.346 -21.469)" fill="#f2f0ef"/>
    <rect id="Rectángulo_11" data-name="Rectángulo 11" width="25.516" height="13.145" rx="6.572" transform="translate(174.742 132.256)" fill="#f3cc2f"/>
    <path id="Trazado_30" data-name="Trazado 30" d="M165.694,129.016c8.062,8.086,37.527,8,45.674,0,10.192-10.009-1.654-33.322-2.343-56.344a14.017,14.017,0,0,0-7.032-11.85,4.11,4.11,0,0,0-.484-.251c.6-2.289-.729-5.162-3.8-5a3.993,3.993,0,0,0-.423.058,5.209,5.209,0,0,0-10.354.682c-.053.075-.1.153-.155.227h-.05c-13.768.729-19.273,9.228-19.463,22.562a65.317,65.317,0,0,1-1.124,11.292C163.811,102.634,159.355,122.658,165.694,129.016Z" transform="translate(0.346 -21.469)" fill="url(#radial-gradient-2)"/>
    <path id="Trazado_31" data-name="Trazado 31" d="M192.953,194.24V158.934a2.116,2.116,0,0,0-2.116-2.116H183.47a2.116,2.116,0,0,0-2.116,2.116V194.24Z" transform="translate(0.346 -21.469)" fill="#381360"/>
  </g>
</svg>
